# xmcd
# 
# Track frame offsets:
#     150
#     21327
#     42392
#     61327
#     83437
#     104595
#     122382
#     142995
#     168337
#     189762
# 
# Disc length: 2787
# 
# Revision: 4
# Processed by: cddbd v1.5.2PL0 Copyright (c) Steve Scherf et al.
# Submitted via: fre:ac v1.0.17
# 
DISCID=770ae10a
DTITLE=Vic Zhou - Make a Wish
DYEAR=2002
DGENRE=New Age
TTITLE0=Make a Wish
TTITLE1=Love loves you
TTITLE2=Hotline for help
TTITLE3=Pieces of tears
TTITLE4=A gentle goodnight
TTITLE5=With you and me
TTITLE6=Loving You
TTITLE7=It aches my heart
TTITLE8=Even fairy tales are not good enough
TTITLE9=If it were not for loving you
EXTD=
EXTT0=
EXTT1=
EXTT2=
EXTT3=
EXTT4=
EXTT5=
EXTT6=
EXTT7=
EXTT8=
EXTT9=
PLAYORDER=
